<mxfile host="app.diagrams.net" agent="Mozilla/5.0 (Windows NT 10.0; Win64; x64) AppleWebKit/537.36 (KHTML, like Gecko) Chrome/140.0.0.0 Safari/537.36 Edg/140.0.0.0" version="28.2.4">
  <diagram name="Trang-1" id="b-QLvXmzYkMOfTeffMuO">
    <mxGraphModel grid="0" page="0" gridSize="10" guides="1" tooltips="1" connect="1" arrows="1" fold="1" pageScale="1" pageWidth="827" pageHeight="1169" math="0" shadow="0">
      <root>
        <mxCell id="0" />
        <mxCell id="1" parent="0" />
        <mxCell id="N0TgWeihZpzRTvkgHQc2-13" value="" style="group" connectable="0" vertex="1" parent="1">
          <mxGeometry x="-2958" y="554" width="898" height="420" as="geometry" />
        </mxCell>
        <mxCell id="N0TgWeihZpzRTvkgHQc2-7" value="&lt;font style=&quot;font-size: 21px;&quot;&gt;CartService&lt;/font&gt;&lt;div&gt;&lt;font style=&quot;font-size: 21px;&quot;&gt;[Container]&lt;/font&gt;&lt;/div&gt;" style="rounded=0;whiteSpace=wrap;html=1;verticalAlign=top;dashed=1;fillColor=light-dark(#f7f7f7, #131313);" vertex="1" parent="N0TgWeihZpzRTvkgHQc2-13">
          <mxGeometry width="898" height="420" as="geometry" />
        </mxCell>
        <mxCell id="N0TgWeihZpzRTvkgHQc2-8" value="POST &lt;code data-start=&quot;632&quot; data-end=&quot;649&quot;&gt;/cart/api/carts&lt;br&gt;&lt;/code&gt;&amp;nbsp;Tạo giỏ hoặc thêm item&quot;" style="rounded=0;whiteSpace=wrap;html=1;fillColor=light-dark(#438dd5, #131313);strokeColor=none;fontColor=light-dark(#ffffff, #131313);" vertex="1" parent="N0TgWeihZpzRTvkgHQc2-13">
          <mxGeometry x="33" y="81" width="203" height="110" as="geometry" />
        </mxCell>
        <mxCell id="N0TgWeihZpzRTvkgHQc2-9" value="PUT &lt;code data-end=&quot;729&quot; data-start=&quot;712&quot;&gt;/cart/api/carts&lt;br&gt;&lt;/code&gt;&quot;Cập nhật số lượng/tính tổng&quot;" style="rounded=0;whiteSpace=wrap;html=1;fillColor=light-dark(#438dd5, #131313);strokeColor=none;fontColor=light-dark(#ffffff, #131313);" vertex="1" parent="N0TgWeihZpzRTvkgHQc2-13">
          <mxGeometry x="297" y="86" width="203" height="110" as="geometry" />
        </mxCell>
        <mxCell id="N0TgWeihZpzRTvkgHQc2-10" value="GET &lt;code data-end=&quot;821&quot; data-start=&quot;794&quot;&gt;/cart/api/carts/{cart_id}&lt;/code&gt;&amp;nbsp;&lt;br&gt;&quot;Lấy giỏ theo id&quot;" style="rounded=0;whiteSpace=wrap;html=1;fillColor=light-dark(#438dd5, #131313);strokeColor=none;fontColor=light-dark(#ffffff, #131313);" vertex="1" parent="N0TgWeihZpzRTvkgHQc2-13">
          <mxGeometry x="561" y="86" width="203" height="110" as="geometry" />
        </mxCell>
        <mxCell id="N0TgWeihZpzRTvkgHQc2-11" value="&lt;font style=&quot;font-size: 11px;&quot;&gt;PUT &lt;code data-end=&quot;912&quot; data-start=&quot;876&quot;&gt;/cart/api/carts/{cart_id}/checkout&lt;/code&gt;&amp;nbsp;&lt;br&gt;&quot;Checkout&quot;&amp;nbsp;&lt;/font&gt;" style="rounded=0;whiteSpace=wrap;html=1;fillColor=light-dark(#438dd5, #131313);strokeColor=none;fontColor=light-dark(#ffffff, #131313);" vertex="1" parent="N0TgWeihZpzRTvkgHQc2-13">
          <mxGeometry x="166" y="264" width="231" height="110" as="geometry" />
        </mxCell>
        <mxCell id="N0TgWeihZpzRTvkgHQc2-12" value="DELETE &lt;code data-end=&quot;1003&quot; data-start=&quot;957&quot;&gt;/cart/api/carts/{cart_id}/items/{product_id}&lt;br&gt;&lt;/code&gt;&amp;nbsp;&quot;Xóa item&quot;" style="rounded=0;whiteSpace=wrap;html=1;fillColor=light-dark(#438dd5, #131313);strokeColor=none;fontColor=light-dark(#ffffff, #131313);" vertex="1" parent="N0TgWeihZpzRTvkgHQc2-13">
          <mxGeometry x="433" y="264" width="307" height="110" as="geometry" />
        </mxCell>
        <mxCell id="N0TgWeihZpzRTvkgHQc2-14" value="" style="group" connectable="0" vertex="1" parent="1">
          <mxGeometry x="-1911" y="550" width="898" height="420" as="geometry" />
        </mxCell>
        <mxCell id="N0TgWeihZpzRTvkgHQc2-15" value="&lt;font style=&quot;font-size: 21px;&quot;&gt;CatalogService&lt;/font&gt;&lt;div&gt;&lt;font style=&quot;font-size: 21px;&quot;&gt;[Container]&lt;/font&gt;&lt;/div&gt;" style="rounded=0;whiteSpace=wrap;html=1;verticalAlign=top;dashed=1;fillColor=light-dark(#f7f7f7, #131313);" vertex="1" parent="N0TgWeihZpzRTvkgHQc2-14">
          <mxGeometry width="898" height="420" as="geometry" />
        </mxCell>
        <mxCell id="N0TgWeihZpzRTvkgHQc2-16" value="POST &lt;code data-end=&quot;1090&quot; data-start=&quot;1067&quot;&gt;/catalog/api/products&lt;/code&gt;&lt;div&gt;&amp;nbsp;&quot;Tạo sản phẩm (admin)&quot;&lt;/div&gt;" style="rounded=0;whiteSpace=wrap;html=1;fillColor=light-dark(#438dd5, #131313);strokeColor=none;fontColor=light-dark(#ffffff, #131313);" vertex="1" parent="N0TgWeihZpzRTvkgHQc2-14">
          <mxGeometry x="33" y="81" width="203" height="110" as="geometry" />
        </mxCell>
        <mxCell id="N0TgWeihZpzRTvkgHQc2-17" value="GET &lt;code data-end=&quot;1188&quot; data-start=&quot;1137&quot;&gt;/catalog/api/products/{current_page}/{high_price}&lt;br&gt;&amp;nbsp;&quot;Phân trang + lọc giá&lt;/code&gt;" style="rounded=0;whiteSpace=wrap;html=1;fillColor=light-dark(#438dd5, #131313);strokeColor=none;fontColor=light-dark(#ffffff, #131313);" vertex="1" parent="N0TgWeihZpzRTvkgHQc2-14">
          <mxGeometry x="297" y="86" width="386" height="110" as="geometry" />
        </mxCell>
        <mxCell id="N0TgWeihZpzRTvkgHQc2-19" value="GET &lt;code data-end=&quot;1274&quot; data-start=&quot;1238&quot;&gt;/catalog/api/products/{product_id}&lt;/code&gt;&lt;div&gt;&amp;nbsp;&quot;Chi tiết sản phẩm&quot;&amp;nbsp;&lt;/div&gt;" style="rounded=0;whiteSpace=wrap;html=1;fillColor=light-dark(#438dd5, #131313);strokeColor=none;fontColor=light-dark(#ffffff, #131313);" vertex="1" parent="N0TgWeihZpzRTvkgHQc2-14">
          <mxGeometry x="44" y="264" width="294" height="110" as="geometry" />
        </mxCell>
        <mxCell id="N0TgWeihZpzRTvkgHQc2-21" value="" style="group" connectable="0" vertex="1" parent="1">
          <mxGeometry x="-864" y="543" width="898" height="420" as="geometry" />
        </mxCell>
        <mxCell id="N0TgWeihZpzRTvkgHQc2-22" value="&lt;div&gt;&lt;font style=&quot;font-size: 21px;&quot;&gt;InventoryService&lt;br&gt;[Container]&lt;/font&gt;&lt;/div&gt;" style="rounded=0;whiteSpace=wrap;html=1;verticalAlign=top;dashed=1;fillColor=light-dark(#f7f7f7, #131313);" vertex="1" parent="N0TgWeihZpzRTvkgHQc2-21">
          <mxGeometry width="898" height="420" as="geometry" />
        </mxCell>
        <mxCell id="N0TgWeihZpzRTvkgHQc2-23" value="GET &lt;code data-end=&quot;1375&quot; data-start=&quot;1344&quot;&gt;/inventory/api/availabilities&lt;/code&gt;&amp;nbsp;&lt;br&gt;&lt;span style=&quot;background-color: transparent; color: light-dark(rgb(255, 255, 255), rgb(19, 19, 19));&quot;&gt;&amp;nbsp;&quot;Danh sách tồn kho&quot;&amp;nbsp;&lt;/span&gt;" style="rounded=0;whiteSpace=wrap;html=1;fillColor=light-dark(#438dd5, #131313);strokeColor=none;fontColor=light-dark(#ffffff, #131313);" vertex="1" parent="N0TgWeihZpzRTvkgHQc2-21">
          <mxGeometry x="33" y="81" width="296" height="110" as="geometry" />
        </mxCell>
        <mxCell id="N0TgWeihZpzRTvkgHQc2-26" value="POST &lt;code data-end=&quot;1539&quot; data-start=&quot;1505&quot;&gt;/inventory/api/inventory/migrate&lt;/code&gt;&amp;nbsp;&lt;div&gt;&amp;nbsp;&quot;Khởi tạo/đồng bộ dữ liệu&quot;&lt;/div&gt;" style="rounded=0;whiteSpace=wrap;html=1;fillColor=light-dark(#438dd5, #131313);strokeColor=none;fontColor=light-dark(#ffffff, #131313);" vertex="1" parent="N0TgWeihZpzRTvkgHQc2-21">
          <mxGeometry x="166" y="264" width="231" height="110" as="geometry" />
        </mxCell>
        <mxCell id="N0TgWeihZpzRTvkgHQc2-27" value="GET &lt;code data-end=&quot;1458&quot; data-start=&quot;1422&quot;&gt;/inventory/api/availabilities/{id}&lt;/code&gt;&amp;nbsp;&lt;br&gt;&amp;nbsp;&quot;Chi tiết tồn kho&quot;" style="rounded=0;whiteSpace=wrap;html=1;fillColor=light-dark(#438dd5, #131313);strokeColor=none;fontColor=light-dark(#ffffff, #131313);" vertex="1" parent="N0TgWeihZpzRTvkgHQc2-21">
          <mxGeometry x="519" y="86" width="307" height="110" as="geometry" />
        </mxCell>
        <mxCell id="N0TgWeihZpzRTvkgHQc2-28" value="" style="group" connectable="0" vertex="1" parent="1">
          <mxGeometry x="-3010" y="1118" width="898" height="420" as="geometry" />
        </mxCell>
        <mxCell id="N0TgWeihZpzRTvkgHQc2-29" value="&lt;font style=&quot;font-size: 21px;&quot;&gt;RatingService&lt;/font&gt;&lt;div&gt;&lt;font style=&quot;font-size: 21px;&quot;&gt;[Container]&lt;/font&gt;&lt;/div&gt;" style="rounded=0;whiteSpace=wrap;html=1;verticalAlign=top;dashed=1;fillColor=light-dark(#f7f7f7, #131313);" vertex="1" parent="N0TgWeihZpzRTvkgHQc2-28">
          <mxGeometry width="898" height="420" as="geometry" />
        </mxCell>
        <mxCell id="N0TgWeihZpzRTvkgHQc2-30" value="GET &lt;code data-end=&quot;1631&quot; data-start=&quot;1610&quot;&gt;/rating/api/ratings&lt;/code&gt;&amp;nbsp;&lt;br&gt;&amp;nbsp;&quot;Danh sách đánh giá&quot;&amp;nbsp;" style="rounded=0;whiteSpace=wrap;html=1;fillColor=light-dark(#438dd5, #131313);strokeColor=none;fontColor=light-dark(#ffffff, #131313);" vertex="1" parent="N0TgWeihZpzRTvkgHQc2-28">
          <mxGeometry x="33" y="81" width="203" height="110" as="geometry" />
        </mxCell>
        <mxCell id="N0TgWeihZpzRTvkgHQc2-31" value="POST &lt;code data-end=&quot;1701&quot; data-start=&quot;1680&quot;&gt;/rating/api/ratings&lt;br&gt;&lt;/code&gt;&amp;nbsp;&quot;Tạo đánh giá (1–5 sao)&quot;" style="rounded=0;whiteSpace=wrap;html=1;fillColor=light-dark(#438dd5, #131313);strokeColor=none;fontColor=light-dark(#ffffff, #131313);" vertex="1" parent="N0TgWeihZpzRTvkgHQc2-28">
          <mxGeometry x="297" y="86" width="203" height="110" as="geometry" />
        </mxCell>
        <mxCell id="N0TgWeihZpzRTvkgHQc2-32" value="PUT &lt;code data-end=&quot;1771&quot; data-start=&quot;1750&quot;&gt;/rating/api/ratings&lt;/code&gt;&amp;nbsp;&lt;br&gt;&quot;Sửa đánh giá (owner/admin)&quot;" style="rounded=0;whiteSpace=wrap;html=1;fillColor=light-dark(#438dd5, #131313);strokeColor=none;fontColor=light-dark(#ffffff, #131313);" vertex="1" parent="N0TgWeihZpzRTvkgHQc2-28">
          <mxGeometry x="561" y="86" width="203" height="110" as="geometry" />
        </mxCell>
        <mxCell id="N0TgWeihZpzRTvkgHQc2-33" value="GET &lt;code data-end=&quot;1855&quot; data-start=&quot;1821&quot;&gt;/rating/api/ratings/{product_id}&lt;/code&gt;&amp;nbsp;&lt;br&gt;&amp;nbsp;&quot;Đánh giá theo sản phẩm&quot;" style="rounded=0;whiteSpace=wrap;html=1;fillColor=light-dark(#438dd5, #131313);strokeColor=none;fontColor=light-dark(#ffffff, #131313);" vertex="1" parent="N0TgWeihZpzRTvkgHQc2-28">
          <mxGeometry x="166" y="264" width="231" height="110" as="geometry" />
        </mxCell>
        <mxCell id="N0TgWeihZpzRTvkgHQc2-35" value="" style="group" connectable="0" vertex="1" parent="1">
          <mxGeometry x="-1900" y="1123" width="898" height="420" as="geometry" />
        </mxCell>
        <mxCell id="N0TgWeihZpzRTvkgHQc2-36" value="&lt;font style=&quot;font-size: 21px;&quot;&gt;OrderService&lt;/font&gt;&lt;div&gt;&lt;font style=&quot;font-size: 21px;&quot;&gt;[Container]&lt;/font&gt;&lt;/div&gt;" style="rounded=0;whiteSpace=wrap;html=1;verticalAlign=top;dashed=1;fillColor=light-dark(#f7f7f7, #131313);" vertex="1" parent="N0TgWeihZpzRTvkgHQc2-35">
          <mxGeometry width="898" height="420" as="geometry" />
        </mxCell>
        <mxCell id="N0TgWeihZpzRTvkgHQc2-37" value="POST &lt;code data-end=&quot;1946&quot; data-start=&quot;1927&quot;&gt;/order/api/orders&lt;br&gt;&lt;/code&gt;&amp;nbsp;&quot;Tạo đơn hàng&quot;" style="rounded=0;whiteSpace=wrap;html=1;fillColor=light-dark(#438dd5, #131313);strokeColor=none;fontColor=light-dark(#ffffff, #131313);" vertex="1" parent="N0TgWeihZpzRTvkgHQc2-35">
          <mxGeometry x="33" y="81" width="203" height="110" as="geometry" />
        </mxCell>
        <mxCell id="N0TgWeihZpzRTvkgHQc2-38" value="GET &lt;code data-end=&quot;2009&quot; data-start=&quot;1985&quot;&gt;/order/api/orders/{id}&lt;/code&gt;&amp;nbsp;&lt;br&gt;&amp;nbsp;&quot;Chi tiết đơn&quot;" style="rounded=0;whiteSpace=wrap;html=1;fillColor=light-dark(#438dd5, #131313);strokeColor=none;fontColor=light-dark(#ffffff, #131313);" vertex="1" parent="N0TgWeihZpzRTvkgHQc2-35">
          <mxGeometry x="297" y="86" width="203" height="110" as="geometry" />
        </mxCell>
        <mxCell id="N0TgWeihZpzRTvkgHQc2-39" value="GET &lt;code data-end=&quot;2070&quot; data-start=&quot;2051&quot;&gt;/order/api/orders&lt;br&gt;&lt;/code&gt;&amp;nbsp;&quot;Danh sách đơn theo user&quot;&amp;nbsp;" style="rounded=0;whiteSpace=wrap;html=1;fillColor=light-dark(#438dd5, #131313);strokeColor=none;fontColor=light-dark(#ffffff, #131313);" vertex="1" parent="N0TgWeihZpzRTvkgHQc2-35">
          <mxGeometry x="561" y="86" width="203" height="110" as="geometry" />
        </mxCell>
        <mxCell id="N0TgWeihZpzRTvkgHQc2-40" value="PATCH &lt;code data-end=&quot;2156&quot; data-start=&quot;2125&quot;&gt;/order/api/orders/{id}/status&lt;/code&gt;&amp;nbsp;&lt;br&gt;&amp;nbsp;&quot;Cập nhật trạng thái&quot;&amp;nbsp;" style="rounded=0;whiteSpace=wrap;html=1;fillColor=light-dark(#438dd5, #131313);strokeColor=none;fontColor=light-dark(#ffffff, #131313);" vertex="1" parent="N0TgWeihZpzRTvkgHQc2-35">
          <mxGeometry x="166" y="264" width="231" height="110" as="geometry" />
        </mxCell>
        <mxCell id="N0TgWeihZpzRTvkgHQc2-42" value="" style="group" connectable="0" vertex="1" parent="1">
          <mxGeometry x="-929" y="1123" width="898" height="420" as="geometry" />
        </mxCell>
        <mxCell id="N0TgWeihZpzRTvkgHQc2-43" value="&lt;font style=&quot;font-size: 21px;&quot;&gt;PaymentService&lt;/font&gt;&lt;div&gt;&lt;font style=&quot;font-size: 21px;&quot;&gt;[Container]&lt;/font&gt;&lt;/div&gt;" style="rounded=0;whiteSpace=wrap;html=1;verticalAlign=top;dashed=1;fillColor=light-dark(#f7f7f7, #131313);" vertex="1" parent="N0TgWeihZpzRTvkgHQc2-42">
          <mxGeometry width="898" height="420" as="geometry" />
        </mxCell>
        <mxCell id="N0TgWeihZpzRTvkgHQc2-44" value="POST &lt;code data-end=&quot;2244&quot; data-start=&quot;2221&quot;&gt;/payment/api/payments&lt;/code&gt;&amp;nbsp;&lt;br&gt;&amp;nbsp;&quot;Khởi tạo thanh toán&quot;" style="rounded=0;whiteSpace=wrap;html=1;fillColor=light-dark(#438dd5, #131313);strokeColor=none;fontColor=light-dark(#ffffff, #131313);" vertex="1" parent="N0TgWeihZpzRTvkgHQc2-42">
          <mxGeometry x="33" y="81" width="203" height="110" as="geometry" />
        </mxCell>
        <mxCell id="N0TgWeihZpzRTvkgHQc2-45" value="GET &lt;code data-end=&quot;2318&quot; data-start=&quot;2290&quot;&gt;/payment/api/payments/{id}&lt;/code&gt;&amp;nbsp;&lt;br&gt;&amp;nbsp;&quot;Trạng thái giao dịch&quot;&amp;nbsp;" style="rounded=0;whiteSpace=wrap;html=1;fillColor=light-dark(#438dd5, #131313);strokeColor=none;fontColor=light-dark(#ffffff, #131313);" vertex="1" parent="N0TgWeihZpzRTvkgHQc2-42">
          <mxGeometry x="297" y="86" width="203" height="110" as="geometry" />
        </mxCell>
        <mxCell id="N0TgWeihZpzRTvkgHQc2-46" value="POST &lt;code data-end=&quot;2401&quot; data-start=&quot;2369&quot;&gt;/payment/api/payments/callback&lt;/code&gt;&amp;nbsp;&lt;br&gt;&amp;nbsp;&quot;Webhook từ cổng thanh toán&quot;" style="rounded=0;whiteSpace=wrap;html=1;fillColor=light-dark(#438dd5, #131313);strokeColor=none;fontColor=light-dark(#ffffff, #131313);" vertex="1" parent="N0TgWeihZpzRTvkgHQc2-42">
          <mxGeometry x="561" y="86" width="203" height="110" as="geometry" />
        </mxCell>
        <mxCell id="N0TgWeihZpzRTvkgHQc2-49" value="Legend" style="shape=table;startSize=30;container=1;collapsible=0;childLayout=tableLayout;fontSize=16;align=left;verticalAlign=top;fillColor=none;strokeColor=none;fontColor=#4D4D4D;fontStyle=1;spacingLeft=6;spacing=0;resizable=0;" vertex="1" parent="1">
          <mxGeometry x="267" y="1231" width="180" height="210" as="geometry" />
        </mxCell>
        <mxCell id="N0TgWeihZpzRTvkgHQc2-50" value="" style="shape=tableRow;horizontal=0;startSize=0;swimlaneHead=0;swimlaneBody=0;strokeColor=inherit;top=0;left=0;bottom=0;right=0;collapsible=0;dropTarget=0;fillColor=none;points=[[0,0.5],[1,0.5]];portConstraint=eastwest;fontSize=12;" vertex="1" parent="N0TgWeihZpzRTvkgHQc2-49">
          <mxGeometry y="30" width="180" height="30" as="geometry" />
        </mxCell>
        <mxCell id="N0TgWeihZpzRTvkgHQc2-51" value="Person" style="shape=partialRectangle;html=1;whiteSpace=wrap;connectable=0;strokeColor=inherit;overflow=hidden;fillColor=#1E4074;top=0;left=0;bottom=0;right=0;pointerEvents=1;fontSize=12;align=left;fontColor=#FFFFFF;gradientColor=none;spacingLeft=10;spacingRight=4;" vertex="1" parent="N0TgWeihZpzRTvkgHQc2-50">
          <mxGeometry width="180" height="30" as="geometry">
            <mxRectangle width="180" height="30" as="alternateBounds" />
          </mxGeometry>
        </mxCell>
        <mxCell id="N0TgWeihZpzRTvkgHQc2-52" value="" style="shape=tableRow;horizontal=0;startSize=0;swimlaneHead=0;swimlaneBody=0;strokeColor=inherit;top=0;left=0;bottom=0;right=0;collapsible=0;dropTarget=0;fillColor=none;points=[[0,0.5],[1,0.5]];portConstraint=eastwest;fontSize=12;" vertex="1" parent="N0TgWeihZpzRTvkgHQc2-49">
          <mxGeometry y="60" width="180" height="30" as="geometry" />
        </mxCell>
        <mxCell id="N0TgWeihZpzRTvkgHQc2-53" value="Software System" style="shape=partialRectangle;html=1;whiteSpace=wrap;connectable=0;strokeColor=inherit;overflow=hidden;fillColor=#3162AF;top=0;left=0;bottom=0;right=0;pointerEvents=1;fontSize=12;align=left;fontColor=#FFFFFF;gradientColor=none;spacingLeft=10;spacingRight=4;" vertex="1" parent="N0TgWeihZpzRTvkgHQc2-52">
          <mxGeometry width="180" height="30" as="geometry">
            <mxRectangle width="180" height="30" as="alternateBounds" />
          </mxGeometry>
        </mxCell>
        <mxCell id="N0TgWeihZpzRTvkgHQc2-54" value="" style="shape=tableRow;horizontal=0;startSize=0;swimlaneHead=0;swimlaneBody=0;strokeColor=inherit;top=0;left=0;bottom=0;right=0;collapsible=0;dropTarget=0;fillColor=none;points=[[0,0.5],[1,0.5]];portConstraint=eastwest;fontSize=12;" vertex="1" parent="N0TgWeihZpzRTvkgHQc2-49">
          <mxGeometry y="90" width="180" height="30" as="geometry" />
        </mxCell>
        <mxCell id="N0TgWeihZpzRTvkgHQc2-55" value="Container" style="shape=partialRectangle;html=1;whiteSpace=wrap;connectable=0;strokeColor=inherit;overflow=hidden;fillColor=#52a2d8;top=0;left=0;bottom=0;right=0;pointerEvents=1;fontSize=12;align=left;fontColor=#FFFFFF;gradientColor=none;spacingLeft=10;spacingRight=4;" vertex="1" parent="N0TgWeihZpzRTvkgHQc2-54">
          <mxGeometry width="180" height="30" as="geometry">
            <mxRectangle width="180" height="30" as="alternateBounds" />
          </mxGeometry>
        </mxCell>
        <mxCell id="N0TgWeihZpzRTvkgHQc2-56" value="" style="shape=tableRow;horizontal=0;startSize=0;swimlaneHead=0;swimlaneBody=0;strokeColor=inherit;top=0;left=0;bottom=0;right=0;collapsible=0;dropTarget=0;fillColor=none;points=[[0,0.5],[1,0.5]];portConstraint=eastwest;fontSize=12;" vertex="1" parent="N0TgWeihZpzRTvkgHQc2-49">
          <mxGeometry y="120" width="180" height="30" as="geometry" />
        </mxCell>
        <mxCell id="N0TgWeihZpzRTvkgHQc2-57" value="Component" style="shape=partialRectangle;html=1;whiteSpace=wrap;connectable=0;strokeColor=inherit;overflow=hidden;fillColor=#7dbef2;top=0;left=0;bottom=0;right=0;pointerEvents=1;fontSize=12;align=left;fontColor=#FFFFFF;gradientColor=none;spacingLeft=10;spacingRight=4;" vertex="1" parent="N0TgWeihZpzRTvkgHQc2-56">
          <mxGeometry width="180" height="30" as="geometry">
            <mxRectangle width="180" height="30" as="alternateBounds" />
          </mxGeometry>
        </mxCell>
        <mxCell id="N0TgWeihZpzRTvkgHQc2-58" value="" style="shape=tableRow;horizontal=0;startSize=0;swimlaneHead=0;swimlaneBody=0;strokeColor=inherit;top=0;left=0;bottom=0;right=0;collapsible=0;dropTarget=0;fillColor=none;points=[[0,0.5],[1,0.5]];portConstraint=eastwest;fontSize=12;" vertex="1" parent="N0TgWeihZpzRTvkgHQc2-49">
          <mxGeometry y="150" width="180" height="30" as="geometry" />
        </mxCell>
        <mxCell id="N0TgWeihZpzRTvkgHQc2-59" value="External Person" style="shape=partialRectangle;html=1;whiteSpace=wrap;connectable=0;strokeColor=inherit;overflow=hidden;fillColor=#6b6477;top=0;left=0;bottom=0;right=0;pointerEvents=1;fontSize=12;align=left;fontColor=#FFFFFF;gradientColor=none;spacingLeft=10;spacingRight=4;" vertex="1" parent="N0TgWeihZpzRTvkgHQc2-58">
          <mxGeometry width="180" height="30" as="geometry">
            <mxRectangle width="180" height="30" as="alternateBounds" />
          </mxGeometry>
        </mxCell>
        <mxCell id="N0TgWeihZpzRTvkgHQc2-60" value="" style="shape=tableRow;horizontal=0;startSize=0;swimlaneHead=0;swimlaneBody=0;strokeColor=inherit;top=0;left=0;bottom=0;right=0;collapsible=0;dropTarget=0;fillColor=none;points=[[0,0.5],[1,0.5]];portConstraint=eastwest;fontSize=12;" vertex="1" parent="N0TgWeihZpzRTvkgHQc2-49">
          <mxGeometry y="180" width="180" height="30" as="geometry" />
        </mxCell>
        <mxCell id="N0TgWeihZpzRTvkgHQc2-61" value="External Software System" style="shape=partialRectangle;html=1;whiteSpace=wrap;connectable=0;strokeColor=inherit;overflow=hidden;fillColor=#8b8496;top=0;left=0;bottom=0;right=0;pointerEvents=1;fontSize=12;align=left;fontColor=#FFFFFF;gradientColor=none;spacingLeft=10;spacingRight=4;" vertex="1" parent="N0TgWeihZpzRTvkgHQc2-60">
          <mxGeometry width="180" height="30" as="geometry">
            <mxRectangle width="180" height="30" as="alternateBounds" />
          </mxGeometry>
        </mxCell>
      </root>
    </mxGraphModel>
  </diagram>
</mxfile>
